<svg width="1400" height="1000" viewBox="0 0 1400 1000" fill="none" xmlns="http://www.w3.org/2000/svg">
  <rect width="1400" height="1000" fill="#20302D"/>
  <circle cx="350" cy="730" r="270" fill="#355A54"/>
  <circle cx="1060" cy="290" r="230" fill="#4E8A7A"/>
  <path d="M640 170V620C640 708 571 780 485 780C399 780 330 708 330 620C330 532 399 460 485 460C522 460 555 472 582 492V262L1068 170V540C1068 628 999 700 913 700C827 700 758 628 758 540C758 452 827 380 913 380C950 380 983 392 1010 412V242L640 298V170Z" fill="#DDEFEA"/>
</svg>
